<?xml version="1.0" encoding="UTF-8"?>
<svg width="16px" height="16px" viewBox="0 0 16 16" version="1.1" xmlns="http://www.w3.org/2000/svg" xmlns:xlink="http://www.w3.org/1999/xlink">
    <!-- Generator: Sketch 48.2 (47327) - http://www.bohemiancoding.com/sketch -->
    <title>yunojuno</title>
    <desc>Created with Sketch.</desc>
    <defs></defs>
    <g id="Page-1" stroke="none" stroke-width="1" fill="none" fill-rule="evenodd">
        <g id="yunojuno" fill="#000000" fill-rule="nonzero">
            <path d="M9.73,0.1 L7.21,0.1 C6.86206061,0.1 6.58,0.382060608 6.58,0.73 L6.58,6.87 L1.26,9.94 C0.959249333,10.1141571 0.85633571,10.4989645 1.03,10.8 L2.29,13 C2.46415706,13.3007507 2.84896452,13.4036643 3.15,13.23 L10.36,9.07 L10.36,0.72 C10.3545386,0.375972076 10.0740713,0.0999566525 9.73,0.1 Z" id="Shape" opacity="0.7"></path>
            <path d="M14.66,2.94 C14.4858429,2.63924933 14.1010355,2.53633571 13.8,2.71 L10.36,4.71 L8.79,5.62 C8.59507732,5.73253866 8.35492268,5.73253866 8.16,5.62 L6.59,4.71 L3.15,2.71 C2.84896452,2.53633571 2.46415706,2.63924933 2.29,2.94 L1,5.12 C0.82633571,5.42103548 0.929249333,5.80584294 1.23,5.98 L4.67,7.98 L6.56,9.07 L6.56,15.2 C6.56,15.5479394 6.84206061,15.83 7.19,15.83 L9.71,15.83 C9.87708639,15.83 10.0373294,15.7636252 10.1554773,15.6454773 C10.2736252,15.5273294 10.34,15.3670864 10.34,15.2 L10.34,9.05 L12.25,8 L15.69,6 C15.9907507,5.82584294 16.0936643,5.44103548 15.92,5.14 L14.66,2.94 Z" id="Shape"></path>
            <path d="M11.3,11.78 L13.79,13.22 C14.0910355,13.3936643 14.4758429,13.2907507 14.65,12.99 L15.91,10.81 C16.0836643,10.5089645 15.9807507,10.1241571 15.68,9.95 L13.19,8.51 L11.3,9.6 L11.3,11.78 Z" id="Shape" opacity="0.6"></path>
            <polygon id="Shape" opacity="0.4" points="11.3 9.6 13.19 8.51 12.25 7.96 10.36 9.05 10.36 11.23 11.3 11.78"></polygon>
        </g>
    </g>
</svg>