<svg version="1" xmlns="http://www.w3.org/2000/svg" width="1200" height="1200" viewBox="0 0 900 900" opacity="0.8">
    <filter id="f1" x="0" y="0">
      <feGaussianBlur stdDeviation="2" />
    </filter>
	<path filter="url(#f1)" d="M435 99l-21 8-4 2-2 2-16 10-8 4c-2 2-5 4-9 5-6 1-32 26-34 31l-4 7c-4 5-6 11-6 13l-1 4-7 21c-1 4-1 8 1 17a288 288 0 0 1 5 33c3 6 2 13-2 16l-3 7c-2 5-2 7-1 11l3 7c1 2 1 8-1 9-2 2-1 13 1 15l1 5c0 4 2 5 3 1l1-3 3 10 5 7 4 6 1 9-1 7-1-3-1-4-3-6c0-4-1-6-3-8-3-3-3-3-4-1s-1 2-10 2l-10-2-9-1-12-1h-25l-21-2-10-1-5-1h-8l-23-1a1159 1159 0 0 1-102-6 720 720 0 0 1-83-5H0v25h9c14 0 15 1 17 5 1 5 2 6 4 5 3-1 5-3 5-6 0-2 0-2 2-2l6 2 8 2a688 688 0 0 1 49 11l10 2c6 1 13 4 14 7l4 5c4 5 4 12 1 17v8l-1 8c0 8 2 9 20 9 13 0 15-1 17-2 3-3 3-11 1-15-2-3-2-3 0-4v-3c-2-1-2-3-2-9 0-7 0-8 3-10l3-6 4-4 19-7 7-2 12-1c8 0 8 0 10 3 3 3 5 3 7-2 2-3 3-3 6-3l22 2 18 2 2 4 2 2 3-3c3-3 3-3 7-2 3 0 4 1 4 4l1 4c2 0 5-3 5-5 0-5 4-5 31-1l6 1 4 12 4 14-6 4-5 3-3 2-5 2-4 1c-5 0-10 8-10 14l-1 3c-1 1 0 5 3 5v4c0 4 0 4 2 4l9-4-3-2c-3 0-4-3-2-4s4 0 4 2l1 1 1 3c-1 2 0 4 2 6l3 2c2 0 2 4 1 7l-1 5c1 3-1 4-5 2h-3c-2 1-6-1-6-2-1-1 0-3 1-5l2-5-5 5c0 2-2 1-2 0l-2-3-4-6-5-8-5-6c-1-3-1-3-2-2l1 4 3 7 3 6 1 2 1 2 2 3 4 7 1 1 3 5c3 4 3 4 2 5s-2 2-1 4l-1 2c-2 0-1 2 9 12 8 8 9 9 10 8 2-3 3-2 3 1-1 1-1 2 1 2l1 1c0 1 8 9 10 9l3 2 2 1 6 6 2 2c2 1 2 2 2 4-1 2-1 3 1 4h2c2-1 5 2 5 4 0 4 2 5 6 4 2-2 3-2 4-1v4c-2 3-2 3 1 4l5 4c2 3 2 3 0 4h-5c-2 0-3 1-3 2s4 3 6 2l1 2 2 4 4 4c1 2 3 4 6 5 3 2 3 2 2 3l-6 1-6 2-5 1c-3 0-4 2-1 6l1 8 1 7c2 4 3 11 2 13l-4-14-2-7-1-6-1-5c0-3-6-2-7 0-1 1-2 2-7 1l-8 2-3 1-3 2h-7l-6 1-8 2-7 1-6 2-4 1-7 2-6 2c-2-1-3-1-5 1-3 2-4 7-4 19 1 10 1 10 3 10 4 0 7-1 7-3s2-2 2 0l9 1c11 0 11 0 11-6l-1-8c-3-7-2-11 0-12 4-2 6-1 6 2l1 3 1 6 2 10c1 3 2 4 4 4 6 0 7-1 7-5l-1-3-1-4-1-9c-2-6-2-8 0-8s2 1 2 3l2 5 1 8c0 10 5 15 11 11v-12c-3-17-3-18-1-18s2 1 2 3l2 6 1 7 2 10c2 4 2 4 6 3l5-1-1-3-1-9-1-6c-2 0-2-2-2-6 0-5 0-6 2-6 1 0 2 2 2 8 1 6 3 12 5 12l3 3c1 4 6 8 9 8s9-3 9-5c1-1 1-1 1 1l2 4a32 32 0 0 0 14 0l-1 2-2 1c-3-1-4 2-4 11 0 7 0 7-2 6-3-2-4-1-6 1l-2 2c-1-1-3-9-2-10 1-2 4-1 6 1 3 3 6 2 5-2l-1-5c-1-4-2-5-4-5s-3 1-4 3l-3 2-5 1c-2 1-3 2-3 4 0 1 0 2-2 2-7 0-8 4-2 5 4 0 7 3 6 6l1 2c3 2 3 3-1 3-6 2-23 2-21 1l2-4 2-5v-4c-2-2-2-2 1-3 4-1 4-3 0-3-4-1-3-3 2-5l4-2c0-2-4-3-6-3l-7 1-7 1-16 1-22 1-18 2c-11 0-11 0-11 3v2h9l12-1c3 0 4 2 1 3-2 1-3 3 0 3 2 1 2 2 2 5l1 5a2737 2737 0 0 0-86-1c-1-1 0-27 1-36l2-19c-1-6 0-10 1-12v-4c-1-1-2-5-2-16l-1-17c-2-4-4-18-3-20s3-2 3 1c0 2 2 3 4 3 3 1 3 1 2 4l1 5 2 2 2 3 1 3 2 6c1 2 2 3 1 4s0 2 1 3l2 4c1 2 2 2 4 1 4-1 5-2 3-5v-7c1-3 1-4-2-3l-1-1c1-1 0-3-1-4l-2-2 2-1c5-1 6-3 3-7l-1-6v-7l-1-5c0-2 5 1 6 4 1 2 3 3 3 1l-1-5-1-5c1-2-4 0-6 2-2 1-5 0-5-2 0-5-4-7-7-3l-2 5c-1 2-1 3-3 2h-6l-1 2c0 2 0 2-1 1h-3l-4 1c-2 0-2 0 0-1v-3c-1-2-3 0-3 2l-1 3c-3 2-4 42-4 105 0 20-1 23-2 23l-1-9c0-12-1-21-3-28l-2-9-2-6-1-3c1-1 0-8-1-15v-23c2-15 0-26-5-26-4 0-8 9-9 22l-1 13a590 590 0 0 0-4 34l-6 10-1 17-2 7c-2 4-2 10-1 10l1-2c1-3 3-2 3 2l1 4h-16c-9 0-15-1-15-2l3-2 4-2c1-1 1-1-2-3-2 0-3-2-3-2l3-6 2-7 2-4c2-2 3-5 3-8l1-6c1-1 3-6 3-10l1-5c1-1 1-1 4 1l4 3 4-6h-12c-1 1-2-2-1-3l1-4 2-3c1-1 2-9 0-9-2-2-8 4-8 7-1 5-1 5 1 5 3 1 3 3 0 3l-3 2-2 4-3 5-3 6c-3 6-5 11-5 14l-2 4-2 3-1 2-3 5c-1 4-2 5-4 7-5 2-7 5-4 5 2 0 1 2-1 3l-4 3-4 3c-3 0-6 10-3 12 2 3 1 3-2 2-5 0-6 3-3 8l3 4h-4l-4 1-4 1c-3 0-4 1-1 2v3l-1 3-2 3-2 4-1 5v2l2-1 1-3c7-7 7-7 10-7 2 0 3 1 3 3l-1 2c-2 0-3 2-1 3 1 1 3 0 6-1l6-3c5 0 3-5-1-7h-5c-3-1-3-2-1-5 2-2 3-3 5-3l3 2 1 2c2 2 2 4 3 12l1 15 1 11v5l-4 1-13 1c-10-1-11-1-8 4 3 3 1 5-3 5-6-1-4 4 2 6 4 1 5 1 10-1s5-2 8-1l5 3c4 2 4 7 1 7l-3-1-4-2h-3l1 3v4h-4c-5 0-7 1-5 4 2 1 1 3-1 1l-5-2-6-2-2 1 2 2c1 1 0 4-1 4l-4 2-5 2c-3 0-9-5-19-14l-11-10-4-5-1-2c-3 0-6 2-6 4l-2 5-2 4-1 3-5 12-2 5-1 14-2 16v24l2 8c2 6 6 11 12 17 5 5 8 6 17 8 14 2 16 3 17 4l1 8a1023 1023 0 0 0 0 44l-1 2h824V656h-3c-2 0-3 0-3-4v-11l2-47c1-44 1-49 3-48l1-29c0-31 0-31-5-27l-2 2v-3c-1-4-4-7-6-7l-5 2c-3 2-3 2-2 4l3 1c3 0 9 4 9 6l-1 2-2 4c0 3-1 4-4 2l-1-3-1-1-1-1c0-3-4-5-9-5-9 0-12-1-14-5l-3-3c-2 0-4 3-3 6 0 2 0 2-2 1-4 0-5-2-5-6l1-3 8-1 9-1 13-2 17-1h6v-13l-8 1-13 1c-4 1-29 2-64 2l-5 1v-15c0-12-1-14-2-16l-2-5c0-4-2-6-7-9l-2-2c0-3-4-2-4 0l-5 6c-6 6-7 9-5 14 4 6-1 10-6 5l-3-2-9 2c-7 2-9 2-11 1-4-2-6-1-5 2 0 2-1 4-2 2h-9l-4 3c-2 2-2 2 0 4l4 1c1-1 2 0 3 2s2 3 7 3l5-1-2-2c-1-1-1-1 1-3s4-2 3 0c0 3 5 8 8 8l4 1c2 1 4 0 6-4l2-3 3-2h3v6c0 5 0 5-4 5l-8 2-13 1-18 1a867 867 0 0 1-70 7l-1 2-2 5-2 2-1-3-2-8c-1-5-3-9-4-6l-1 2c-1 2-2 2-4 0l-3-4-1-1c-2 0-4-2-5-5l-3-2c-5 1-5 1-8-6-3-6-4-8-7-10-5-3-8-2-8 3l-1 3c-2 0-6-5-8-9-3-5-10-9-12-8-1 2 0 6 2 8l1 2-2-1-4-3-6-5c-7-5-11-3-9 5 1 5 0 9-1 5l-6-13c-5-10-6-11-9-12-5-1-8-1-7 1l-2 2-3 1c-1 0-2 0-3-2v-4l-5-4-6-5h-5c-4-4-3-10 4-23l6-11h16a1983 1983 0 0 0 51-1c3 2 4 18 2 21l-2 10c0 7 1 9 6 10l4 4v6c0 3 0 5 2 6s2 1 3-1l1-7c0-5 0-6 2-7l4-1 3-2c2-3 3-15 2-16v-9c3-5 5-6 10-6 7 0 12-1 11-2h-13c-4 1-6 1-8-1l-10-4-7-3c1-2 47-2 53 0 5 1 6 4 1 4-4 0-9 1-8 2 0 2 8 1 11 0 4-3 8-2 9 0l2 3 2-3c3-2 3-2 28-2 23 1 33 2 39 4 3 1 9-2 9-4l7-1c6 1 7 1 7 3 0 1-1 2-7 1-6 0-8 1-3 3 4 0 7 8 8 18 0 12 0 12 6 12 5 0 6 0 7 3 2 2 6 3 9 1 2-2 2-2 8 4l6 4v-6-20c2-16 2-16 4-17h4l14 1c9 0 12 0 12 2 1 2 4 1 4-1l23-1 25 2h3v-5c0-6 0-6-3-6l-53-3-27-2a1090 1090 0 0 0-82-3 769 769 0 0 1-44-2 1162 1162 0 0 1-102-6 3743 3743 0 0 0-37-3l5-7 10-15c5-11 5-10 9-38 3-25 3-25-5-26-5 0-5 0-4-2l1-6 1-7 2-14 3-16 1-23-2-20-4-8-3-7-6-11-6-10c0-1-7-9-10-10l-11-11c-2-4-16-11-27-14-6-1-12-4-16-6l-12-4-17-2c-11-2-17-2-26-1zm-79 134l-2 8-1 7-3 30c-1 4-1 4-5 4-5 0-5 0-6-4-2-6 0-17 5-24l3-9 6-17c3-2 3-1 3 5zm195 61c0 4-8 18-13 23-2 3-4 2-2-1l3-3 9-17c2-3 3-4 3-2zm-213 12c-1 1-3-1-3-4-2-5 0-6 2-1l1 5zm11 4c2 1 3 2 4 7l1 9v9l1 6h-4l-8-3c-3-1-4-2-4-4 1-3-1-10-2-10l-1-4c0-5 5-10 10-11l3 1zM61 344a774 774 0 0 0 71 3 1664 1664 0 0 0 65 3c5 2 3 4-6 7-10 2-15 4-19 6l-5 1-24 1c-19 1-20 1-27-1l-9-3a217 217 0 0 1-40-9l-23-6c-2-1-2-1-1-2h18zm148 7c-2 1-5 2-6 0l3-1 3 1zm124 6h-4c-1-1-1-1 2-1 2 0 3 0 2 1zm232 13c17 0 24 1 23 2l-37 4h-10v-3c1-4 3-5 5-4l19 1zm-156 2h-4l2-1c2-1 2 0 2 1zm423 9h-4c-1-1 0-1 2-1s3 0 2 1zm-273 44l-2 1c-1 0-2 0-1-1l2-1 1 1zm217 31l-3 1h-11v-2c2-1 12 0 14 1zm-455 12l-1 1h-3c-2-2-2-2 1-2l3 1zm13 10c1 2 1 2-1 3-2 0-6-2-5-4 2-2 5-1 6 1zm492 9c0 3 0 5-4 8l-4 3-2 3c0 3-1 4-3 4-3 0-3 0-3-3v-6l-1-8c0-3 1-4 2-4 3-1 14-2 15-1v4zm-481 0l3 1c2 0 1 3-1 3-1 1-3 0-4-1-2-2-3-5-1-5l3 2zm324 3c0 3 0 3 5 3l59-4c6-2 7-1 8 5 0 5 0 5-3 8l-4 2-1 2-2 1v-2c0-2-3-5-5-5l-6-1c-3-1-7 1-6 3v3l2 1c3 0 4 3 2 5s-2 2-1 4 2 2 6 2c4-1 5 0 4 5 0 3-1 4-4 4l-4 2-3 73-1 35-10-5-9-6c-2 1-2 11 0 13l4 13a384 384 0 0 1-38-2c14 0 16 0 16-3l1-2 5-4c4-4 4-4 3-6-2-2-2-5 0-5 1 0 2-3 1-4 0-1-1-2-2-1l-23 7c-1-1-1-1 2-3l17-12-1-3v-4-6l1-12c1-8 0-11-2-6l-4 6-4 9-15 24-5 5c-6 5-8 7-10 7h-4c-1 0 2-4 7-7a67 67 0 0 0 12-15l7-13 2-3 2-3 2-3v-3c-1-1 0-5 2-6l5-11 2-4 1-7 1-6v-3c-1 0-2-1-2-3-3-16-3-20-2-21 1-2 2 3 2 7-1 2-1 3 1 5l2 6 2 7 1 9-1 8 2 25 2 5 2 5c2 0 3-10 4-30 1-30 2-42 0-43l-4-1c-2 0-3-1-5-5l-2-6c0-3-4-8-6-8l-1 3c0 5-1 8-3 8h-1l-2 4-3 6-1 5-1 2c0 1-4 7-6 7l1-4v-2l2-3 2-5v-4l2-6 2-8 1-11-1-12v-5l1 3zm94 1c1 3 5 3 4-1 0-2 1-2 4-2s3 0 3 3 2 5 4 5 2 1 2 4l-1 7c-1 4-3 5-4 3 0-3-1-2-3 0 0 2-1 2-2 1-2-1-2-2-2-3 1-2 1-2 3-1h1c0-1-3-3-5-2s-2-2 1-5l2-3h-2l-4 2c-2 2-6 3-6 1l2-2c3 0 3-7 1-8-2 0-2-2 0-2 0 0 2 1 2 3zm-411 1l-2 2c-2 1-3 0-1-2h3zm503 4c-1 2-5 3-5 1 0-1 3-3 5-3v2zm-499 0c-2 2-3 2-1 0l2-1-1 1zm7 3c0 1-5 3-6 2s3-4 5-3l1 1zm514 0l4 3 2 1 1 1c-1 2-12-2-12-3 0-2 1-3 2-3l3 1zm-13 6l-2 2-2-2 1-3c1-1 3 1 3 3zm-53 7c0 2-2 4-3 4v-5c3-1 3-1 3 1zm66 1c4 2 5 3 4 5l-1 23a1223 1223 0 0 1-2 71l-1 33c0 16 0 16-7 17l-8 2c-5 2-6 1-6-7l2-33a4226 4226 0 0 1 3-105c0-4 0-4 4-5l5-2c1-1 4-1 7 1zm-98 5c4 4 2 6-3 5-6 0-6-1-5-4 2-4 5-4 8-1zm48 22c0 8 2 14 5 16 3 1 4-1 4-6l1-8 3-10c0-6 0-6 1-3v59l-2 64v7h-3l-8-1c-10-2-10-2-8-7l1-51c1-43 2-64 4-72v-2l2 3v11zm-69 14l-2 100h-18c-4-1-6-5-5-8l1-25a2111 2111 0 0 1 6-85c1 1 2 5 2 14 0 16 1 21 3 21 3 1 5-1 4-4l1-8c3-7 4-16 4-22 0-4 0-5 2-5 1 0 2 2 2 22zm-365-11c0 1-3 1-4-1l2-1 2 2zm386 16c0 16-1 39-2 35v-38c1-14 2-12 2 3zm-373 26l-1 4c-1 0-3-9-2-10 1-2 3 2 3 6zm260 4c-3 2-8 4-8 2l3-1 2-2 3-1h2l-2 2zm-359 4l1 5-1 3-1-1-1-4c-2-3-2-3-1-4 2-1 3-1 3 1zm100 4l-1 1-1-3h1l1 2zm24-2v1c-3 1-4 1-4-1l2-1 2 1zm-1 14h-3l4-1-1 1zm0 9l-3 8-1-3-1-4c-3-2-2-3 0-3l2-1 2-1c2 0 2 1 1 4zm26 1v1c-2 1-3 0-3-1h3zm-95 2l-1 1-1-2c1-1 2-1 2 1zm-27 0l-4 3-1-2c0-1 1-2 3-2l2 1zm9 0c-1 2-4 2-4 1l2-2 2 1zm75 1l-2 2c-1 0-2 0-2-2l2-2 2 2zm-93 1l-2 1-2-2c0-1 3-1 4 1zm38 4l2 2 1 3c1 0 1 1-1 1-3 1-6-1-5-4 0-3 1-3 3-2zm413 15l-1 13-1-9 2-18v14zm-431-9h-2c-2-3-1-5 1-2l1 2zm-17-1c0 2-3 5-4 5v-6c2-1 3-1 4 1zm201-1h-5c-2-1-1-1 3-1 5 0 5 0 2 1zm-111 3l-2 3-2-4c1-3 4-1 4 1zm-84 5c-1 2-2 1-2-2h2v2zm21 1l-2 1-2-2c0-3 0-3 2-2l2 3zm-223-2l-2 1h-2l2-2 2 1zm269 2h47l4-1-3 2c-3 2-3 2-28 2l-26-1c-1-2 1-3 3-2h3zm129 3c-1 2-3 2-9 2-10 0-9-1 0-3l7-1c1-2 2 1 2 2zm-33 0l5 1-7 1c-6 0-7 0-6-1l2-1h6zm72 4l-4 1-5-1c-1-1 1-1 4-1l5 1zm-450 8c2 1 2 2 1 3l-1-1-2-2v-2l2 2zm737 35l3 2c1 0 2 2 0 2h-2l-2-1c-2 1-1 5 2 8 4 6 2 9-4 4-3-4-4-6-1-9v-4l2-4 2 2zm7 28c0 4 0 5-4 3-3-1-4-3-4-5l4-1c3 0 4 1 4 3zm-5 22c0 1 1 2 3 2l2 1-3 3-3 5 1 2 4 5 7 9 4 6-1 12c0 16-1 18-8 12l-5-4c-3-1-3-6 0-10 3-3 2-5-2-5h-3v-19l1-19h3zm-380 63l-5 5c-3 4-5 5-8 5-2 0-3 0-3-2s7-8 9-7l3-2c2-2 4-2 4 1zm380 0v2c-2 0-4-1-4-3 1-1 3-1 4 1zm5 7l-1 1c-2 0-3-2-1-3 1-1 2 0 2 2zm-407 10h7l12-2 9 1 4 2 3 2c2 1 2 2-3 6-4 4-4 4-4 11 0 6 0 6 4 10l5 4c2 0 1 2-4 8l-6 5-3 2c-2 2-9 1-12-1l-16-1h-14l-6-6-7-10-4-6c-2-4-1-13 1-17s5-7 6-7l2-1 4-2c6-1 19 0 22 2zm-347 35l6 1 23 5c1 1 2 2 2 5l3 27v5h-39v-19c0-21 0-25 3-25l2 1z"/></svg>