<svg version="1" xmlns="http://www.w3.org/2000/svg" width="1200" height="472" viewBox="0 0 900 354" opacity="0.8">
    <filter id="f1" x="0" y="0">
      <feGaussianBlur stdDeviation="2" />
    </filter>

	<path filter="url(#f1)" d="M640 9c-7 2-13 6-13 7l-5 3c-20 10-31 20-36 33-6 17-5 16-4 26 4 22 4 23 2 25-2 3-2 26 0 30l2 4c0 3 1 5 3 5 3 1 4 5 3 7s-1 2-2-2l-2-4-10-1a473 473 0 0 0-44-3 196 196 0 0 0-30-1 964 964 0 0 0-70-5l-22-1c-2 1-9 0-17-1a588 588 0 0 0-72-5 688 688 0 0 0-55-4 6298 6298 0 0 0-245-21l-18-1H0v11c0 11 0 12 2 12l19 1 17 1a1922 1922 0 0 0 5 57c2 38 2 38 0 40s-3 3-2 4c1 2 0 3-3 3-4 0-4-1-1-4s3-3 2-5c-3-2-4-3-3 0 0 3-5 7-9 7-3 0-4-1-4-3 0-3-3-3-3 1 0 2 0 2-2 2s-3 0-3-2l2-4c1-1 0-4-3-4-5 1-8 0-11-3l-3-3v4c0 5 0 5 3 5l4 1 2 1c2 0 3 2 3 6 0 2-2 4-5 3-1 0-2 0-2 2l-3 3c-2 1-2 1 1 2l4 1h12c2-3 6-2 8 0 1 2 1 2 2 1 0-2 4-1 6 1 1 2 1 2-8 2l-13-1H8l-5 2c-3 0-3 0-3 3 0 2 0 2 1 1l6-1c3 0 4 0 4 2l2 2h13c3-1 11 0 12 1 1 2 7-3 7-5v-2c1 0 2 8 1 10l1 4c1 1 1 2-1 4-3 2-4 2-14 3l-20 2-11 1-1 10 1 10 12-1a180 180 0 0 1 30-3h6l2 17c-1 3-2 4-5 6l-5 2-7 3a163 163 0 0 1-22 9l-9 4-3 1v27h94v-7l1-6 3-1 14-5-6-1c-9 0-12-1-12-2 0-2 2-2 10-2 12 0 14 0 16-3 1-4 4-4 5-1 1 2 2 3 5 3l4 2 2 4 1 11v8h18v-9l1-8 7-2c9-2 10-2 9-4 0-2 3-4 7-4 3 0 3 0 3-2l1-2v1l2 3 3 4 3 7 1 9v7h11v-13c0-14 0-15 6-15l6-1h5l7 1h6v4l1 9-11 1c-7 0-10 1-10 2v12h5c5 0 11-3 12-5 0-3 4-6 4-5l1 5v5h18v-11l1-13c2-1 3-1 4 5 0 3 0 4 1 3 1-2 5-2 7-1l1 9 1 8c1 0 4-3 5-6 0-3 6-5 11-5 4 0 5 0 7-3l3-4a104 104 0 0 1 11-23c0-2-15-3-17-2-1 1-3 1-5-1h-5c-3 2-3 3 0 3 2 0 2 1 2 3v3l-3-3c-2-3-3-3-5-2l-4 1c-1 0-1-1 1-2l5-7c2-4 3-5 3-2s2 4 5 2c2-1 3-3 1-6 0-2 0-2-2-1h-3-3l-2 1-5 7-9 10-4 4v-5c1-4 0-4-3-7-4-3-7-4-9-1-2 2-4 1-10-4-4-4-5-6-4-6 2-2 1-3-2-3l-6-1-4-2-10-5 1-5c2-4 2-4 5-5l4-2 3-1 3-1 4-2 5-2 14-2a580 580 0 0 0 32-2l3 1c-1-3 2-4 11-4l17-1a462 462 0 0 1 40-3c2 0 2 0 2 4l1 6c1 1 0 2-3 4-6 3-13 11-15 17-3 7-5 9-7 9l-6 2c-4 1-4 1-3 12 1 2 0 3-1 4-1 0-1 1 1 2v3h-5c-1-1-2-1-3 1l-2 3-3 7-2 7-2 7-2 4-2 3c-1 1 2 1 20 1h21v-5l-2-22v-17h3c4 0 8-4 8-7l2-8c3-6 4-5 4 3 0 4 1 7 3 11 3 6 3 12 2 21-1 8 0 14 3 16 4 2 5 0 5-4v-7l5-20-2-7c-1-4-2-18 0-20 1-2 4-1 4 3l3 7c2 4 2 4 6 4h3l1 23-1 26-1 3h20v-19l-1-31-1-11-5-2c-6-1-7-2-9-6l-4-6c-3-4-9-8-12-8-4 0-5-1-3-4l2-7-1-3 7-2 19-2 18-1 23-3c31-2 28-2 31-7 2-4 3-5 2-6-2-1-26 0-68 3l-30 2-52 4a435 435 0 0 1-59 2c2 0 1-2-3-4-6-2-15-2-19 1l-2 1-1-5c0-2-1-3-3-4-2 0-3-1-3-2 0-2-3-1-3 1l-2 4c-2 3-3 3-4 2l-3-2c-3 0-5-4-4-8l-1-3-1 1-4 1c-7 0-11 1-10 3 0 2 0 2-2 2s-4-2-2-3c1-2-3-5-4-3v2c3 2 2 4-1 4l-4 2-5 1h-5l-10 2h-10c-1 0-2 1-2 3l-1 3h8c1-2 4-1 4 1s4 1 5-1c1-3 3-4 4-1l5 4 7 1c2 0 6 4 6 5l-2-1h-3l-21 2-15 1c-2-1 0-3 5-4l7-1c3 0-1-2-6-2l-6-2c-1-1-3-2-4-1-3 0-4-1-2-6v-3c-3-1-1-3 2-3l2-1 2-3c1-1 1-1-2-1l-5 1h-7c-2-1-1-5 1-6 2 0 7-4 5-4l-4 2c-3 2-3 2-7 0-7-4-8-2-3 3 3 2 4 3 3 4l-3 1c-1 0-2 1-2 3v3l-1 2 1 6 2 8c2 6 1 7-9 7-7 0-8 0-9-2l-2-1-5 1-6 2c-2 0-2 0-2-3 0-2-1-3-2-3l-1 3 1 2 1 1-3 1c-3 0-3 0-3-2v-5c-2-2-2-4 0-12v-12l-2-3-1-7v-9-5l-1-7-1-17c-3-21-4-52-3-54l13 1a391 391 0 0 0 59 2l10 1 2 3c2 4 4 5 7 1s6-4 17-1c21 4 26 6 31 12l6 4 1 1-1 10c-2 3-3 16-1 18 1 1 23 3 26 1 3-1 3-1 2-9l-1-11c0-5 1-9 2-9l4-3c3-3 4-4 10-5 7-2 24-4 27-3l43 1c24 1 37 3 38 5 0 2 5 1 5 0 1-2 3-2 12-2 18 0 24 1 25 4 1 2 5 3 5 0l5-1 7 2 6 1 6 2 7 1 8 2 5 1c5 0 12 11 9 14l-1 7c0 7 1 8 11 8 7 0 8 0 9-2v-11l1-11 2-3 2-2 4-2 15-4c4 0 6 0 8 2h4c1-3 21-3 25 0h5c1-1 2-1 4 1 2 3 3 2 5 0s2-2 7-1l9 1c4 0 6 2 6 7l1 4c3 1 0 8-4 8l-2 1-5 2c-4 1-6 4-6 9l2 2 4 2 5 4c2 1 2 2 1 2l-1 5c0 4 0 4-3 3-3 0-7-4-7-6l-1-2-2-2c-1-2-4-3-4 0l4 9 3 5-1 1-2 1c0 1 20 20 22 20s1 4-1 4h2c2 0 3 0 4 3 2 4 4 5 10 8l3 3 2 3c1 2 1 2-1 4s-3 2-1 4l5 1 2 1 2 1 6 1-3 1-8 2-10 2-7 2-9 2-17 4-6 1c-5 1-6 3-6 12 0 8 0 10 4 10 4 1 3 3 0 4s-3 1 0 1l4-2h5l1 3c-1 3-1 3-23 2l-22-1v-22a147 147 0 0 0-3-45c1-2 1-2 4 3l6 10 2 5 1 9a90 90 0 0 1-2 23c0 3 5-4 7-10s2-6 1-7c-2-1-2-1 0-3s1-6-2-7c-2 0-2-1-2-7-1-8 0-9 2-9l-1-4c-2-3-2-4-1-6 1-3 1-4-1-5-3-2-6-3-7 0l-3 1c-2-1-4 0-5 1s-2 2-3 1l-1 1a320 320 0 0 0-3 60 143 143 0 0 1-6-38c0-25-6-21-9 6-1 10-1 15-3 19-2 3-2 7-3 13v9h-13c-2-1-2-1-1-5l2-5 3-8c2-8 4-11 7-11l2-1c0-2-1-2-5-1-2 1-2 1-2-1l2-5-1-4c-2 0-3 3-3 6 1 1 0 2-1 4l-4 6a93 93 0 0 1-13 23l-4 5-3 4c1 1 0 2-1 3l-1 3-3 4c-5 4-7 10-3 11h2c0-2 3-3 4-2l5 1c3 1 4 4 4 10 0 7-1 8-6 8-4 0-5 0-7 3l-2 3h443v-19c0-18 0-19-2-19-2-1-2-2-1-15 0-15 1-18 2-17l1-30v-31h-2c-3 0-5-2-5-4l3-1c4 0 4 0 4-4v-4l-11 1-16 1h-23l1-2c2-1 2-2 1-7l-3-6v-7c1-1 2-4 2-12l1-12h16c2 1 3 2 4 1l14-1 14 1v-3c0-2-1-3-4-3l-18-1-24-1a934 934 0 0 0-85-4l-35-2c-27-1-28-2-24-5 3-4 8-14 9-20l2-13c1-8 1-11-3-11-2-1-2-1-2-5l2-14 2-21c-1-9-1-11-4-16l-4-8-4-5-5-6-4-4c-2-3-10-7-19-10l-8-4-6-1-5-1c-6-2-17-2-22 0zm-41 80c-1 13-3 19-5 20s-2 1-3-2c-1-4-1-7 1-12l3-7 4-7v8zm-2 37l2 6c1 9 1 9-2 10-5 0-7-2-7-8-1-5-1-7 1-8 2-3 5-3 6 0zm-372 6l34 2 22 3 1 1c-14 3-58 2-68-1l-6-3-7-2a834 834 0 0 0 23 0zm243 13c38 1 43 2 44 4 0 2-1 2-4 2l-6 2c-3 2-29 4-32 2l-6-1-7-2-6-1-6-2-7-1c-4 0-5 0-5-2l-2-2c-2-1-2-1 0-1l37 2zm249 13l6 1-6 2h7c14 0 16 1 16 8l-1 5-1 5c0 3 1 4 2 5 3 2 4 3 3 6l1 3c2 0 2-1 2-3s1-4 3-5c3-2 4-5 3-11l1-5c2-2 2-2 0-3l-5-3c-7-1-3-3 11-3 12 0 14 0 18 2l6 2c2-2 32-1 35 1 1 1 3 1 6-1 6-1 10-1 6 1-1 1-2 2-1 3l1 5c1 9 1 10 3 10l5 2 2 2-2 4-3 7c0 3 0 3-3 3h-10l-5 1-5 2c-4 1-6 3-3 3l3 2c1 2 5 3 6 0 1-1 1-1 3 1l3 2c3 1 0 3-6 3-16 2-29 2-32 1h-3l-6 3c-6 1-7 2-6 5l-1 1-2-3c-1-5-1-6-3-6l-6-3-4-2-3-4-5-5h-4c-1 1-2 1-6-3s-4-4-5-3c-1 2-2 2-5 0-5-2-6-2-6 2l-1 3v-3l-1-3-3-4c-2-3-2-3-6-3-4 1-5 0-5-1l-3-3c-6-4-7-4-7-8l6-14 1-3c0-2 1-2 4-2l11 1zm128 29c3 3 3 3 0 2l-3-3c0-2 1-1 3 1zm-12 23c0 3-1 4-3 3-1 0-2-1-1-3 2-3 3-3 4 0zm59 13l3 4-2 3c-3 4-4 4-4 0 1-3 0-4-2-4l-3 1c-1 1-2 0-4-2-3-2-7-3-7-1l1 2 1 1c-1 2-5-2-5-4 0-1 2-2 6-2 12-1 12-1 16 2zm-33-1l-3 5-3 4c-1 3-3-1-4-5v-5h5c4 0 5 0 5 2zm-47 3c2 3-3 8-6 6l-5-1c-3-1-5 0-3 2l1 3 3 4 3 3-3 2c-2 2-2 3-3 15l-1 28c0 19 0 19-8 14-5-3-5-3-5 1l2 7v4l-5-1c-5 0-6-1-4-2 1-1 3-5 3-8s0-3-2-3l-4 2c-3 0-3-2 1-5 2-2 3-2 2-4v-3-9l-2 2c-1 5-15 22-17 22s-1-1 1-4l7-10 3-5c2-3 3-4 2-5s0-2 1-4l3-5c1-3 1-3 2-1l2 10 2 8c2 2 3-4 4-19l1-17c1-2 0-3-3-5l-4-6c-2-5-4-5-5 0l-4 8c-2 0 0-9 2-14v-6c-2-2 0-3 12-3l15-1h12zm20 6v12c0 2-3-1-3-3 0-4-3-10-5-10v-1l1-2c-1-2 1-3 5-3 1 0 2 1 2 7zm56 0l-3 1-1-1 2-1 2 1zm-842 1l1 4c-1 5-2 5-5 2-2-3-3-4-1-6h5zm-9 5c-1 2-3 1-2-1h2v1zm167-1l2 2c0 2 5 5 8 5 6 0 7 5 2 7-5 3-9 3-13 1l-5-4-4-2-3-1c0-2 4-7 6-7l2-1h5zm684 2c2 1 2 2 1 3l-1 7v33l-1 32c0 6-1 7-3 7l-5 1c-3 2-4 0-3-7a2793 2793 0 0 0 5-77c4-1 5-1 7 1zm-28 16c0 5 0 6 2 6l2-3c0-4 2-1 2 4v31l-1 26-6-1c-4-1-5-3-2-5v-4c-1-3 0-53 1-60 1-5 2-2 2 6zm-39 27l-1 34c-1 2-9 1-11-1-1-1-2-3-1-9l1-22c0-20 1-33 2-31l1 9c0 7 1 9 3 7 2-1 4-11 4-17l1-3 1 33zm-43-28l-1 1-1-3c0-2 0-2 1-1l1 3zm-580 1l-2 1-2-1 2-1 2 1zm-16 22l-2 4c-2 3-1 5 3 5l3 3c0 2-2 3-7 4-5 2-13 9-16 13l-4 5-1 2-3 6c-2 2-3 3-6 3l-3 1-18 1c-16 0-38 1-29 2l5 1c0 1-9 3-10 2v-12h4l5-1c2-3 0-4-5-3-5 2-6 1-6-5s1-7 7-7c4 0 5 0 4-2 0-3 3-5 5-3 1 2 9 3 14 3l3-1c1-3 5-2 8 0l2 3-4 2c-2 2-5 3-7 3l-7 1-6 1c-4 1-4 1-4 6l-1 4 5-1c15 0 24 0 26 2 1 1 6 2 6 0l-1-2c-1-1 0-2 1-3 1-2 1-2-2-2h-4c0-2 1-4 4-4 3-1 2-4-1-3-4 0-5-2-3-5l3-3 3-2c1-1 2-2 3-1l5-3c4-5 5-5 11-2l5 2 5-5 6-7h-3c-4 1-7-1-5-2 1-2 12-1 12 0zm425 4c-1 1-1 0-1-2s0-3 1-2v4zm-461-1c3 3 0 9-3 7-3-1-2-8 1-8l2 1zm437 4c0 6 2 10 4 10l1 1h-13l2-1c4 0 5-2 3-7-1-4-1-7 1-7s2 1 2 4zm-462-1c1 1 1 1-2 1l-5 1c-3 3-5 3-6 0 0-2 0-2 2-1l3-1h8zm471 7l-1-3 1-2v5zm9 2c-1 1-1 0-1-3 0-4 0-4 1-1v4zm12-3l6 3h3c1 1 0 3-3 3s-9 7-7 8h2c1-2 2-1 2 2 0 2 0 3-2 4-5 1-7 0-7-3v-5c0-3 0-4 2-4 3-1 3-3 0-4-1-1-2-2-1-4l1-3 4 3zm-503 2c0 2-2 3-2 2-1-1 0-4 1-4l1 2zm-11 3c0 2-1 3-3 3-3 0-3 0-3-2s1-3 3-3h4l-1 2zm524 9c-1 2-1 2-2 0 0-3 1-6 2-4v4zm-18 0l-1 1-2-1 2-1 1 1zm92 2h-3c-3 0-2-1 1-1l2 1zm1 3c0 1-3 2-5 1v-1h5zm-46 1l-9 1-9-1h18zm-467 7c-1 3-2 5-4 5-4 0-5-2-1-7 3-5 3-5 5-3 2 1 2 1 0 5zm-61-4c1 1-1 2-2 1l1-2 1 1zm86 4c0 2-1 4-4 5-2 0-3-2-3-5 1-3 6-3 7 0zm7 3l-3 1-2-1 3-1 2 1zm252 6l-2 1-2-2 2-1 2 2zm407 20l-1-1c-2 0-3-6-1-7 0-1 3 7 2 8zm3 6c-1 2-4 2-4 1l2-2 2 1z"/></svg>